<svg width="40" height="40" viewBox="0 0 40 40" fill="none" xmlns="http://www.w3.org/2000/svg">
<path d="M35.2147 11.5017L35.2073 6.28827L25.5868 -7.62939e-05V4.02168L31.9325 8.19985L31.9374 11.4024L28.9895 13.3983L26.9784 11.9311V9.44609L23.701 7.20434V11.7276L18.506 14.9152L18.4961 23.3361L14.823 25.404L12.9372 23.9269V21.489L15.1696 19.9598V19.9399V16.1664L11.1523 18.855L8.08146 16.8566L5.27618 18.6937L9.65989 21.6951V23.5372L6.50057 25.6746L3.27733 23.4925V16.231L8.06179 12.9912L8.06671 9.87558L14.2034 13.8278L19.3616 10.3944L16.217 8.55982L14.1592 9.94757L9.6771 6.98338L14.732 4.03658L19.1108 6.60355V2.77543L14.7369 0.210936L4.7943 6.00774L4.78692 11.2236L0 14.4658V25.2576L4.78692 28.4998L4.7943 33.7157L14.4149 40.0016V35.9823L8.06916 31.8041L8.06425 28.6016L11.0121 26.6056L13.0233 28.0728V30.5579L16.3006 32.7996V28.2764L21.5694 25.0888L21.6284 16.6679L25.1787 14.5999L27.0644 16.077V18.5149L24.832 20.0442V20.064V23.8375L28.8494 21.1489L31.9202 23.1474L34.7255 21.3103L30.3417 18.3064V16.4668L33.5011 14.3293L36.7243 16.5115V23.773L31.9398 27.0128L31.9349 30.1284L25.7982 26.1736L20.6401 29.5847L23.7846 31.4168L25.8425 30.0564L30.3245 33.0206L25.2696 35.9674L20.8908 33.4004V37.226L25.2647 39.7905L35.2073 33.9962L35.2147 28.7803L40.0016 25.5381V14.7439L35.2147 11.5017Z" fill="#0084FF"/>
</svg>
